<?xml version="1.0" encoding="utf-8"?>
<!-- Generator: Adobe Illustrator 21.1.0, SVG Export Plug-In . SVG Version: 6.00 Build 0)  -->
<svg version="1.1" id="Layer_1" xmlns="http://www.w3.org/2000/svg" xmlns:xlink="http://www.w3.org/1999/xlink" x="0px" y="0px"
	 viewBox="0 0 381.3 306" style="enable-background:new 0 0 381.3 306;" xml:space="preserve">
<style type="text/css">
	.st0{fill:#00AAAD;}
	.st1{fill:#6AC9CD;}
	.st2{fill:#81D0D3;}
	.st3{fill:#97D7D9;}
	.st4{fill:#ACDEE0;}
	.st5{fill:#C0E5E7;}
	.st6{fill:#D4EDED;}
</style>
<g>
	<path class="st0" d="M1.5,302.1c0,0.3,0,0.6,0,0.8l328-2L327.7,3.9C192.6,248.7,58.9,294.4,1.5,302.1z"/>
	<path class="st1" d="M1.5,300.9c0,0.4,0,0.7,0,1.1l328.1-1l-1-159.5C197.3,269.6,60,295.8,1.5,300.9z"/>
	
		<rect x="337.1" y="3.7" transform="matrix(1 -6.061009e-03 6.061009e-03 1 -0.1061 2.1725)" class="st0" width="42.7" height="29.9"/>
	
		<rect x="337.3" y="48.5" transform="matrix(1 -6.061009e-03 6.061009e-03 1 -0.3776 2.175)" class="st1" width="42.7" height="29.9"/>
	
		<rect x="337.6" y="93.2" transform="matrix(1 -6.061009e-03 6.061009e-03 1 -0.6491 2.1774)" class="st2" width="42.7" height="29.9"/>
	<path class="st2" d="M293.3,212.5l-35.6,18.9L222,248.2l-35.6,14.5L150.8,275l-35.7,10.1L79.4,293l-35.7,5.7L8,301.2l-6.5,0.2
		c0,0.7-0.1,1.3-0.1,2l328.1-2l-0.7-110L293.3,212.5z"/>
	
		<rect x="337.9" y="138" transform="matrix(1 -6.061009e-03 6.061009e-03 1 -0.9205 2.1799)" class="st3" width="42.7" height="29.9"/>
	<path class="st3" d="M293.4,240.4l-35.6,13.1L222.1,265l-35.7,10.1l-35.7,8.5l-35.7,7l-35.7,5.5l-35.7,4L8,301.9L1.5,302
		c0,0.5,0,0.9-0.1,1.4l328.1-2l-0.5-75.6L293.4,240.4z"/>
	
		<rect x="338.1" y="182.8" transform="matrix(1 -6.061009e-03 6.061009e-03 1 -1.192 2.1824)" class="st4" width="42.7" height="29.9"/>
	<path class="st4" d="M293.6,261.5l-35.7,8.6l-35.7,7.6l-35.7,6.7l-35.7,5.7l-35.7,4.7l-35.7,3.7l-35.7,2.7L8,302.4l-6.5,0.1
		c0,0.3,0,0.6,0,0.9l328.1-2l-0.3-49.5L293.6,261.5z"/>
	
		<rect x="338.4" y="227.6" transform="matrix(1 -6.061009e-03 6.061009e-03 1 -1.4635 2.1848)" class="st5" width="42.7" height="29.9"/>
	<path class="st5" d="M293.7,277.1l-35.7,5.4l-35.7,4.8l-35.7,4.2l-35.7,3.5l-35.7,2.9l-35.7,2.3L43.8,302L8,302.8l-6.6,0.1
		c0,0.2,0,0.4,0,0.5l328.1-2l-0.2-30.3L293.7,277.1z"/>
	
		<rect x="338.7" y="272.4" transform="matrix(1 -6.061009e-03 6.061009e-03 1 -1.7349 2.1873)" class="st6" width="42.7" height="29.9"/>
	<path class="st6" d="M293.7,291.5l-35.7,2.6l-35.7,2.3l-35.7,2l-35.7,1.7l-35.7,1.5l-35.7,1.2l-35.7,0.9L8,304.1l-6.6,0.1
		c0,0.1,0,0.2,0-0.8l328.1-2l-0.1-12.7L293.7,291.5z"/>
</g>
</svg>
