<svg id="Layer_1" data-name="Layer 1" xmlns="http://www.w3.org/2000/svg" viewBox="0 0 790.57 290.18"><defs><style>.cls-1{fill:gray;}.cls-2{fill:#a7a7a7;}.cls-3{fill:#cecece;}.cls-4{fill:#e9e9e9;}.cls-5{fill:#fff;}.cls-6{fill:#9d9d9d;}.cls-7{fill:#f5f5f5;}.cls-8{fill:#ababab;}.cls-9{fill:#909090;}.cls-10{fill:#b8b8b8;}.cls-11{fill:#ededed;}.cls-12{fill:#d7d7d7;}.cls-13{fill:#bcbcbc;}.cls-14{fill:#e6e6e6;}.cls-15{fill:#8d8d8d;}.cls-16{fill:#8f8f8f;}.cls-17{fill:#9e9e9e;}.cls-18{fill:#a8a8a8;}.cls-19{fill:#c2c2c2;}.cls-20{fill:#d0d0d0;}.cls-21{fill:#eee;}.cls-22{fill:#fafafa;}.cls-23{fill:#d8d8d8;}.cls-24{fill:#bebebe;}.cls-25{fill:#9f9f9f;}.cls-26{fill:#0e4845;}.cls-27{fill:#0b3c39;}.cls-28{fill:#0d6255;}.cls-29{fill:#0e7562;}.cls-30{fill:#0f8269;}.cls-31{fill:#0a8f74;}.cls-32{fill:#1aa380;}.cls-33{fill:#10b58e;}.cls-34{fill:#1aa782;}.cls-35{fill:#0f5e53;}.cls-36{fill:#0c7564;}.cls-37{fill:#0d8870;}.cls-38{fill:#0f6556;}.cls-39{fill:#0d584d;}.cls-40{fill:#0e6b5b;}.cls-41{fill:#0f856d;}.cls-42{fill:#109b7d;}.cls-43{fill:#067a68;}.cls-44{fill:#159f7e;}.cls-45{fill:#15b089;}.cls-46{fill:#0e6d5d;}.cls-47{fill:#0b806a;}.cls-48{fill:#23b78e;}.cls-49{fill:#1cae85;}.cls-50{fill:#3cb993;}.cls-51{fill:#3cb992;}.cls-52{fill:#023f5d;}.cls-53{fill:#044a6e;}.cls-54{fill:#044464;}.cls-55{fill:#064b6e;}.cls-56{fill:#0b5077;}.cls-57{fill:#0b547c;}.cls-58{fill:#115f8a;}.cls-59{fill:#146594;}.cls-60{fill:#0e76ad;}.cls-61{fill:#1681c0;}.cls-62{fill:#1483c1;}.cls-63{fill:#107db8;}.cls-64{fill:#0e71a9;}.cls-65{fill:#166999;}.cls-66{fill:#105c88;}.cls-67{fill:#055078;}.cls-68{fill:#034567;}.cls-69{fill:#231f20;}</style></defs><title>ExpanseLogoAndTitleRight</title><path class="cls-1" d="M56.1,232.52s12.15,8.2,27.51,8.2H231.13s6.29-.44,8-2.2c0,0-31.52,36.73-88.42,36.73S64.44,240.86,56.1,232.52Z" transform="translate(0 -3.74)"/><path class="cls-1" d="M145.5,240.71,164,274.58a127.13,127.13,0,0,1-42.51-2.6Z" transform="translate(0 -3.74)"/><path class="cls-1" d="M214.36,240.71,193.09,268s26.66-8.56,46.08-29.48c0,0-1.73,2.2-11,2.2Z" transform="translate(0 -3.74)"/><path class="cls-2" d="M258.2,214.81c7.46-11.12,12.59-27.51,12.59-27.51l-15.07-3.8S262.21,196.15,258.2,214.81Z" transform="translate(0 -3.74)"/><path class="cls-3" d="M276.78,150.86s-.16,21.37-6,36.44l-15.07-3.8S250.83,171.77,241,166Z" transform="translate(0 -3.74)"/><path class="cls-4" d="M220.26,115.57,276.78,143s.18,3,0,7.85L241,166s-6.94-6-22.56-8.68Z" transform="translate(0 -3.74)"/><path class="cls-5" d="M183.42,140.21l36.84-24.64-1.82,41.73A100.18,100.18,0,0,1,183.42,140.21Z" transform="translate(0 -3.74)"/><path class="cls-5" d="M191.72,102.74l28.54,12.84-36.84,24.64S164.34,131.55,191.72,102.74Z" transform="translate(0 -3.74)"/><path class="cls-5" d="M191.72,102.74,225.3,69.21l7.44,7.93,5-19.34s8.76,8.93,11,12.23l-28.51,45.54Z" transform="translate(0 -3.74)"/><path class="cls-5" d="M248.77,70s25.21,26.53,28,73l-56.53-27.44Z" transform="translate(0 -3.74)"/><path class="cls-6" d="M166.52,220.34h63.66s8.12.75,9-16.09-10-23.64-18-25.51l-6-1.54Z" transform="translate(0 -3.74)"/><polygon class="cls-3" points="156.31 155.46 215.14 173.46 166.52 216.6 147.64 216.6 156.31 155.46"/><path class="cls-7" d="M166.83,152s10.59,12.11,37.48,21.87l-48-14.69Z" transform="translate(0 -3.74)"/><polygon class="cls-8" points="156.31 155.46 102.47 209.78 110.85 216.6 147.64 216.6 156.31 155.46"/><path class="cls-9" d="M57.12,204.82l45.34,8.69,8.39,6.82H80.68S65.64,220.11,57.12,204.82Z" transform="translate(0 -3.74)"/><path class="cls-10" d="M60.39,131.39,85.47,180l-1.32,1.32,3.74,3.74,14.58,28.42-45.34-8.69S52,195.75,52,187.3V159.53S51.54,143.47,60.39,131.39Z" transform="translate(0 -3.74)"/><polygon class="cls-11" points="60.4 127.66 117.46 144.93 85.47 176.29 60.4 127.66"/><path class="cls-5" d="M117.46,148.66l8-8S118.5,122.29,98.11,119s-31.31,3.71-37.72,12.4Z" transform="translate(0 -3.74)"/><polygon class="cls-12" points="87.89 181.36 98.98 192.45 140.48 150.95 156.31 155.46 102.47 209.78 87.89 181.36"/><path class="cls-5" d="M140.48,154.69l8.46-8.46S142.82,111.69,109,101L139.68,79l16.63,80.24Z" transform="translate(0 -3.74)"/><path class="cls-5" d="M139.68,79l32.43,15.26S154,112.55,157.41,134c0,0,1,11,9.42,18.06l-10.52,7.18Z" transform="translate(0 -3.74)"/><path class="cls-13" d="M32,191.91a186.71,186.71,0,0,1-.44-22.83l-4.61,4.81A177.56,177.56,0,0,0,32,191.91Z" transform="translate(0 -3.74)"/><path class="cls-14" d="M31.52,169.08s-.4-22.38,4.17-33.48H25.26a121.94,121.94,0,0,0,1.65,38.28Z" transform="translate(0 -3.74)"/><path class="cls-5" d="M35.69,135.6S41.11,118.49,52,110.72L41.2,86.37S29.39,105.13,25.26,135.6Z" transform="translate(0 -3.74)"/><path class="cls-5" d="M41.2,86.37,52,110.72A51.92,51.92,0,0,1,84,98.22l19.67-32-41.82-6.8S51.33,68.86,41.2,86.37Z" transform="translate(0 -3.74)"/><path class="cls-5" d="M109,101S99.27,97.23,84,98.22l19.67-32L139.68,79,109,101" transform="translate(0 -3.74)"/><path class="cls-5" d="M61.81,59.43s26-27.91,67.63-34.68c0,0-25.39,41.56-25.81,41.49Z" transform="translate(0 -3.74)"/><path class="cls-5" d="M129.44,24.75s20.9-3.72,42.68,0L139.68,79,103.63,66.24Z" transform="translate(0 -3.74)"/><path class="cls-5" d="M172.12,24.75s25.75,3.47,47.56,18.92l-15.95,4.21L211,55.16S173.72,91,172.12,94.23L139.68,79Z" transform="translate(0 -3.74)"/><path class="cls-1" d="M118,277a144.85,144.85,0,0,0,49.26,3.18l7.57,11.74s-31.91,6.69-67.47-4.29Z" transform="translate(0 -3.74)"/><path class="cls-15" d="M167.29,280.15s16.9-2.65,21.36-4.67L174.86,291.9Z" transform="translate(0 -3.74)"/><path class="cls-1" d="M188.65,275.48s27.73-8.43,44.92-23.8V268s-23.2,18.09-58.7,23.9Z" transform="translate(0 -3.74)"/><path class="cls-16" d="M233.56,251.68a139.19,139.19,0,0,0,17.69-17l8.93,9.42A133.71,133.71,0,0,1,233.56,268Z" transform="translate(0 -3.74)"/><path class="cls-17" d="M251.25,234.66s11.49-12.48,20.58-33l16.94-8.18s-6.69,25.62-28.59,50.58Z" transform="translate(0 -3.74)"/><path class="cls-18" d="M276.78,189.07s-2.48,7.33-5,12.62l16.94-8.18.52-2Z" transform="translate(0 -3.74)"/><path class="cls-19" d="M282.79,148.52,295.63,144s2.07,20.22-6.34,47.49l-12.51-2.42S283.49,168.46,282.79,148.52Z" transform="translate(0 -3.74)"/><path class="cls-20" d="M295.63,144s.19.35-.69-10.59l-12.14,15.11Z" transform="translate(0 -3.74)"/><path class="cls-21" d="M253.67,66.24h16.24s20.63,26.23,25,67.17l-12.14,15.11S285.17,104.43,253.67,66.24Z" transform="translate(0 -3.74)"/><path class="cls-5" d="M258.82,52.32a117.39,117.39,0,0,1,11.09,13.91H253.67s-8.73-10.88-14.12-15.07L243.4,37.5S249.29,41.86,258.82,52.32Z" transform="translate(0 -3.74)"/><path class="cls-5" d="M243.4,37.5l-15.78,4s-66.14-52.23-146.49-5L74,26S153.81-31.07,243.4,37.5Z" transform="translate(0 -3.74)"/><path class="cls-5" d="M74,26S57.87,34.67,39.11,56.4H56.53S70,42.55,81.13,36.57Z" transform="translate(0 -3.74)"/><path class="cls-22" d="M39.11,56.4s-4.79,6-6.86,9.06l6.17,13.86S48,63.58,56.53,56.4Z" transform="translate(0 -3.74)"/><path class="cls-4" d="M32.25,65.46s-21.81,26.13-26,72h13s2.36-33.83,19.16-58.15Z" transform="translate(0 -3.74)"/><path class="cls-23" d="M6.27,137.47h13a135.85,135.85,0,0,0,2.81,42L11.91,191.25S3.6,162.92,6.27,137.47Z" transform="translate(0 -3.74)"/><path class="cls-24" d="M22.07,179.43s4.37,16.21,8,23.46H16.15a94.72,94.72,0,0,1-4.24-11.63Z" transform="translate(0 -3.74)"/><path class="cls-25" d="M30.07,202.88a125.92,125.92,0,0,0,26,37.83H38.65s-16.81-20.56-22.5-37.83Z" transform="translate(0 -3.74)"/><path class="cls-1" d="M56.1,240.71S79.71,267.71,118,277l-10.64,10.64s-41.85-12.07-68.74-46.9Z" transform="translate(0 -3.74)"/><path class="cls-26" d="M50.36,232.52s12.15,8.2,27.51,8.2H225.39s6.29-.44,8-2.2c0,0-31.52,36.73-88.42,36.73S58.7,240.86,50.36,232.52Z" transform="translate(0 -3.74)"/><path class="cls-27" d="M139.75,240.71l18.46,33.87A127.13,127.13,0,0,1,115.7,272Z" transform="translate(0 -3.74)"/><path class="cls-27" d="M208.62,240.71,187.35,268s26.66-8.56,46.08-29.48c0,0-1.73,2.2-11,2.2Z" transform="translate(0 -3.74)"/><path class="cls-28" d="M252.46,214.81C259.92,203.69,265,187.3,265,187.3L250,183.49S256.47,196.15,252.46,214.81Z" transform="translate(0 -3.74)"/><path class="cls-29" d="M271,150.86s-.16,21.37-6,36.44L250,183.49s-4.88-11.73-14.71-17.51Z" transform="translate(0 -3.74)"/><path class="cls-30" d="M214.52,115.57,271,143s.18,3,0,7.85L235.26,166s-6.94-6-22.56-8.68Z" transform="translate(0 -3.74)"/><path class="cls-31" d="M177.68,140.21l36.84-24.64-1.82,41.73A100.18,100.18,0,0,1,177.68,140.21Z" transform="translate(0 -3.74)"/><path class="cls-32" d="M186,102.74l28.54,12.84-36.84,24.64S158.6,131.55,186,102.74Z" transform="translate(0 -3.74)"/><path class="cls-33" d="M186,102.74l33.58-33.52L227,77.14l5-19.34S240.8,66.73,243,70l-28.51,45.54Z" transform="translate(0 -3.74)"/><path class="cls-34" d="M243,70s25.21,26.53,28,73l-56.53-27.44Z" transform="translate(0 -3.74)"/><path class="cls-35" d="M160.78,220.34h63.66s8.12.75,9-16.09-10-23.64-18-25.51l-6-1.54Z" transform="translate(0 -3.74)"/><polygon class="cls-36" points="150.57 155.46 209.4 173.46 160.78 216.6 141.9 216.6 150.57 155.46"/><path class="cls-37" d="M161.09,152s10.59,12.11,37.48,21.87l-48-14.69Z" transform="translate(0 -3.74)"/><polygon class="cls-38" points="150.57 155.46 96.73 209.78 105.11 216.6 141.9 216.6 150.57 155.46"/><path class="cls-39" d="M51.38,204.82l45.34,8.69,8.39,6.82H74.94S59.89,220.11,51.38,204.82Z" transform="translate(0 -3.74)"/><path class="cls-40" d="M54.65,131.39,79.73,180l-1.32,1.32,3.74,3.74,14.58,28.42-45.34-8.69s-5.08-9.07-5.08-17.53V159.53S45.8,143.47,54.65,131.39Z" transform="translate(0 -3.74)"/><polygon class="cls-41" points="54.65 127.66 111.71 144.93 79.73 176.29 54.65 127.66"/><path class="cls-42" d="M111.71,148.66l8-8s-6.93-18.39-27.32-21.7-31.31,3.71-37.72,12.4Z" transform="translate(0 -3.74)"/><polygon class="cls-43" points="82.15 181.36 93.24 192.45 134.74 150.95 150.57 155.46 96.73 209.78 82.15 181.36"/><path class="cls-44" d="M134.74,154.69l8.46-8.46s-6.12-34.54-39.92-45.2L133.94,79l16.63,80.24Z" transform="translate(0 -3.74)"/><path class="cls-45" d="M133.94,79l32.43,15.26S148.26,112.55,151.67,134c0,0,1,11,9.42,18.06l-10.52,7.18Z" transform="translate(0 -3.74)"/><path class="cls-46" d="M26.21,191.91a186.71,186.71,0,0,1-.44-22.83l-4.61,4.81A177.56,177.56,0,0,0,26.21,191.91Z" transform="translate(0 -3.74)"/><path class="cls-47" d="M25.77,169.08s-.4-22.38,4.17-33.48H19.52a121.94,121.94,0,0,0,1.65,38.28Z" transform="translate(0 -3.74)"/><path class="cls-44" d="M29.94,135.6s5.42-17.11,16.35-24.88L35.46,86.37S23.65,105.13,19.52,135.6Z" transform="translate(0 -3.74)"/><path class="cls-48" d="M35.46,86.37l10.83,24.35A51.92,51.92,0,0,1,78.21,98.22l19.67-32-41.82-6.8S45.59,68.86,35.46,86.37Z" transform="translate(0 -3.74)"/><path class="cls-49" d="M103.28,101s-9.75-3.8-25.07-2.81l19.67-32L133.94,79,103.28,101" transform="translate(0 -3.74)"/><path class="cls-50" d="M56.07,59.43s26-27.91,67.63-34.68c0,0-25.39,41.56-25.81,41.49Z" transform="translate(0 -3.74)"/><path class="cls-51" d="M123.69,24.75s20.9-3.72,42.68,0L133.94,79,97.88,66.24Z" transform="translate(0 -3.74)"/><path class="cls-51" d="M166.37,24.75s25.75,3.47,47.56,18.92L198,47.89l7.27,7.27S168,91,166.37,94.23L133.94,79Z" transform="translate(0 -3.74)"/><path class="cls-52" d="M112.29,277a144.85,144.85,0,0,0,49.26,3.18l7.57,11.74s-31.91,6.69-67.47-4.29Z" transform="translate(0 -3.74)"/><path class="cls-53" d="M161.54,280.15s16.9-2.65,21.36-4.67L169.12,291.9Z" transform="translate(0 -3.74)"/><path class="cls-54" d="M182.91,275.48s27.73-8.43,44.92-23.8V268s-23.2,18.09-58.7,23.9Z" transform="translate(0 -3.74)"/><path class="cls-55" d="M227.82,251.68a139.19,139.19,0,0,0,17.69-17l8.93,9.42A133.71,133.71,0,0,1,227.82,268Z" transform="translate(0 -3.74)"/><path class="cls-56" d="M245.51,234.66s11.49-12.48,20.58-33L283,193.5s-6.69,25.62-28.59,50.58Z" transform="translate(0 -3.74)"/><path class="cls-57" d="M271,189.07s-2.48,7.33-5,12.62L283,193.5l.52-2Z" transform="translate(0 -3.74)"/><path class="cls-58" d="M277,148.52,289.88,144s2.07,20.22-6.34,47.49L271,189.07S277.74,168.46,277,148.52Z" transform="translate(0 -3.74)"/><path class="cls-59" d="M289.88,144s.19.35-.69-10.59L277,148.52Z" transform="translate(0 -3.74)"/><path class="cls-60" d="M247.92,66.24h16.24s20.63,26.23,25,67.17L277,148.52S279.42,104.43,247.92,66.24Z" transform="translate(0 -3.74)"/><path class="cls-61" d="M253.08,52.32a117.39,117.39,0,0,1,11.09,13.91H247.92S239.2,55.35,233.8,51.17l3.86-13.66S243.55,41.86,253.08,52.32Z" transform="translate(0 -3.74)"/><path class="cls-61" d="M237.66,37.5l-15.78,4s-66.14-52.23-146.49-5L68.21,26S148.07-31.07,237.66,37.5Z" transform="translate(0 -3.74)"/><path class="cls-62" d="M68.21,26S52.13,34.67,33.37,56.4H50.79S64.24,42.55,75.38,36.57Z" transform="translate(0 -3.74)"/><path class="cls-63" d="M33.37,56.4s-4.79,6-6.86,9.06l6.17,13.86S42.22,63.58,50.79,56.4Z" transform="translate(0 -3.74)"/><path class="cls-64" d="M26.51,65.46s-21.81,26.13-26,72h13s2.36-33.83,19.16-58.15Z" transform="translate(0 -3.74)"/><path class="cls-65" d="M.53,137.47h13a135.85,135.85,0,0,0,2.81,42L6.16,191.25S-2.14,162.92.53,137.47Z" transform="translate(0 -3.74)"/><path class="cls-66" d="M16.33,179.43s4.37,16.21,8,23.46H10.41a94.72,94.72,0,0,1-4.24-11.63Z" transform="translate(0 -3.74)"/><path class="cls-67" d="M24.33,202.88a125.92,125.92,0,0,0,26,37.83H32.91s-16.81-20.56-22.5-37.83Z" transform="translate(0 -3.74)"/><path class="cls-68" d="M50.36,240.71S74,267.71,112.29,277l-10.64,10.64s-41.85-12.07-68.74-46.9Z" transform="translate(0 -3.74)"/><path class="cls-69" d="M312,115.79v5.4a5.44,5.44,0,0,0,5.4,5.4h13.49a2.7,2.7,0,1,1,0,5.4H317.35a10.68,10.68,0,0,1-10.79-10.79V107.69a13.49,13.49,0,1,1,27,0v8.09ZM320,99.6a8.1,8.1,0,0,0-8.09,8.09v2.7h16.19v-2.7A8.1,8.1,0,0,0,320,99.6Z" transform="translate(0 -3.74)"/><path class="cls-69" d="M399.42,113.09l9.77,14.68a2.74,2.74,0,0,1,.45,1.51,2.38,2.38,0,0,1-2.7,2.7,2.52,2.52,0,0,1-2.25-1.19L396.15,118l-8.54,12.84a2.52,2.52,0,0,1-2.25,1.19,2.72,2.72,0,0,1-2.7-2.7,2.73,2.73,0,0,1,.45-1.51l9.77-14.68-9.77-14.68a2.72,2.72,0,0,1-.45-1.51,2.38,2.38,0,0,1,2.7-2.7,2.53,2.53,0,0,1,2.25,1.19l8.54,12.8,8.54-12.8a2.53,2.53,0,0,1,2.25-1.19,2.37,2.37,0,0,1,2.7,2.66,2.8,2.8,0,0,1-.45,1.55Z" transform="translate(0 -3.74)"/><path class="cls-69" d="M458.77,96.9a2.38,2.38,0,0,1,2.7-2.7H475A10.68,10.68,0,0,1,485.75,105v16.19A10.71,10.71,0,0,1,475,132H464.16v13.49a2.7,2.7,0,0,1-5.4,0Zm5.4,2.7v27H475a5.37,5.37,0,0,0,5.4-5.4V105a5.31,5.31,0,0,0-5.4-5.4Z" transform="translate(0 -3.74)"/><path class="cls-69" d="M545.66,132a10.68,10.68,0,0,1-10.79-10.79,10.73,10.73,0,0,1,1.43-5.44,10.08,10.08,0,0,1,9.36-5.36h10.79V105a5.31,5.31,0,0,0-5.4-5.4H540.27a2.7,2.7,0,1,1,0-5.4h10.79A10.68,10.68,0,0,1,561.85,105v24.28a2.39,2.39,0,0,1-2.7,2.7Zm10.79-16.19H545.66a5.4,5.4,0,0,0,0,10.79h10.79Z" transform="translate(0 -3.74)"/><path class="cls-69" d="M611,129.28V96.9a2.38,2.38,0,0,1,2.7-2.7h13.49A10.68,10.68,0,0,1,638,105v24.28a2.7,2.7,0,0,1-5.4,0V105a5.31,5.31,0,0,0-5.4-5.4H616.37v29.68a2.7,2.7,0,0,1-5.4,0Z" transform="translate(0 -3.74)"/><path class="cls-69" d="M708.66,122.53a3.79,3.79,0,0,0-2.29-3.68l-13.86-6.66a8.85,8.85,0,0,1-5.44-8.54,8.12,8.12,0,0,1,3.84-7.19,14.57,14.57,0,0,1,8.26-2.21,19.76,19.76,0,0,1,10.75,3,2.71,2.71,0,0,1,1.43,2.37,2.72,2.72,0,0,1-2.7,2.7,2.37,2.37,0,0,1-1.27-.33,15.72,15.72,0,0,0-8.22-2.33q-6.71,0-6.7,4a3.69,3.69,0,0,0,2.21,3.6l14,6.75a8.86,8.86,0,0,1,5.4,8.54,8.13,8.13,0,0,1-3.88,7.36,15.81,15.81,0,0,1-8.54,2.08,26.15,26.15,0,0,1-13-3,2.66,2.66,0,0,1-1.51-2.41,2.72,2.72,0,0,1,2.7-2.7,2.64,2.64,0,0,1,1,.2q1.31.57,3.84,1.51a27.7,27.7,0,0,0,7.15,1Q708.67,126.58,708.66,122.53Z" transform="translate(0 -3.74)"/><path class="cls-69" d="M768.58,115.79v5.4a5.44,5.44,0,0,0,5.4,5.4h13.49a2.7,2.7,0,0,1,0,5.4H774a10.68,10.68,0,0,1-10.79-10.79V107.69a13.49,13.49,0,1,1,27,0v8.09Zm8.09-16.19a8.1,8.1,0,0,0-8.09,8.09v2.7h16.19v-2.7a8.1,8.1,0,0,0-8.09-8.09Z" transform="translate(0 -3.74)"/><path class="cls-69" d="M323.18,195.25a3.29,3.29,0,0,0-2-3.2l-12-5.79a7.69,7.69,0,0,1-4.72-7.42,7.06,7.06,0,0,1,3.34-6.25,12.66,12.66,0,0,1,7.17-1.92,17.17,17.17,0,0,1,9.34,2.59,2.35,2.35,0,0,1,1.24,2.06,2.36,2.36,0,0,1-2.34,2.34,2.06,2.06,0,0,1-1.1-.28,13.66,13.66,0,0,0-7.14-2q-5.82,0-5.82,3.48A3.21,3.21,0,0,0,311,182l12.14,5.86a7.69,7.69,0,0,1,4.69,7.42,7.06,7.06,0,0,1-3.37,6.39,13.73,13.73,0,0,1-7.42,1.81,22.71,22.71,0,0,1-11.33-2.59,2.31,2.31,0,0,1-1.31-2.09,2.36,2.36,0,0,1,2.34-2.34,2.29,2.29,0,0,1,.89.18q1.14.5,3.34,1.31a24.08,24.08,0,0,0,6.21.85Q323.18,198.77,323.18,195.25Z" transform="translate(0 -3.74)"/><path class="cls-69" d="M375.22,189.39v4.69a4.73,4.73,0,0,0,4.69,4.69h11.72a2.34,2.34,0,1,1,0,4.69H379.91a9.28,9.28,0,0,1-9.37-9.37V182.36a11.72,11.72,0,1,1,23.44,0v7Zm7-14.06a7,7,0,0,0-7,7v2.34h14.06v-2.34a7,7,0,0,0-7-7Z" transform="translate(0 -3.74)"/><path class="cls-69" d="M439,173a2.07,2.07,0,0,1,2.34-2.34h14.06a2.07,2.07,0,0,1,2.34,2.34v4.69a2.34,2.34,0,1,1-4.69,0v-2.34h-9.37v25.78a2.34,2.34,0,1,1-4.69,0Z" transform="translate(0 -3.74)"/><path class="cls-69" d="M514.45,193.65l7.1-21.41a2.15,2.15,0,0,1,2.24-1.6,2.07,2.07,0,0,1,2.38,2.31,2.51,2.51,0,0,1-.14.78l-9.23,27.77a2.39,2.39,0,0,1-4.69,0l-9.23-27.8a2.48,2.48,0,0,1-.14-.78,2.2,2.2,0,0,1,.69-1.63,2.29,2.29,0,0,1,1.65-.67,2.15,2.15,0,0,1,2.24,1.6Z" transform="translate(0 -3.74)"/><path class="cls-69" d="M578.21,161.27v-2.34a2.34,2.34,0,1,1,4.69,0v2.34a2.34,2.34,0,1,1-4.69,0Zm0,11.72a2.34,2.34,0,1,1,4.69,0v28.12a2.34,2.34,0,1,1-4.69,0Z" transform="translate(0 -3.74)"/><path class="cls-69" d="M642,180v14.06a4.73,4.73,0,0,0,4.69,4.69h7a2.34,2.34,0,1,1,0,4.69h-7a9.28,9.28,0,0,1-9.37-9.37V180a9.28,9.28,0,0,1,9.37-9.37h7a2.34,2.34,0,1,1,0,4.69h-7A4.67,4.67,0,0,0,642,180Z" transform="translate(0 -3.74)"/><path class="cls-69" d="M705.72,189.39v4.69a4.73,4.73,0,0,0,4.69,4.69h11.72a2.34,2.34,0,0,1,0,4.69H710.41a9.28,9.28,0,0,1-9.37-9.37V182.36a11.72,11.72,0,1,1,23.43,0v7Zm7-14.06a7,7,0,0,0-7,7v2.34h14.06v-2.34a7,7,0,0,0-7-7Z" transform="translate(0 -3.74)"/><path class="cls-69" d="M785.88,195.25a3.29,3.29,0,0,0-2-3.2l-12-5.79a7.69,7.69,0,0,1-4.72-7.42,7.06,7.06,0,0,1,3.34-6.25,12.66,12.66,0,0,1,7.17-1.92,17.17,17.17,0,0,1,9.34,2.59,2.35,2.35,0,0,1,1.24,2.06,2.36,2.36,0,0,1-2.34,2.34,2.06,2.06,0,0,1-1.1-.28,13.66,13.66,0,0,0-7.14-2q-5.82,0-5.82,3.48a3.21,3.21,0,0,0,1.92,3.12l12.14,5.86a7.69,7.69,0,0,1,4.69,7.42,7.06,7.06,0,0,1-3.37,6.39,13.73,13.73,0,0,1-7.42,1.81,22.71,22.71,0,0,1-11.33-2.59,2.31,2.31,0,0,1-1.31-2.09,2.36,2.36,0,0,1,2.34-2.34,2.3,2.3,0,0,1,.89.18q1.14.5,3.34,1.31a24.07,24.07,0,0,0,6.21.85Q785.88,198.77,785.88,195.25Z" transform="translate(0 -3.74)"/></svg>