<svg id="Layer_1" data-name="Layer 1" xmlns="http://www.w3.org/2000/svg" viewBox="0 0 300 300"><defs><style>.cls-1{fill:gray;}.cls-2{fill:#a7a7a7;}.cls-3{fill:#cecece;}.cls-4{fill:#e9e9e9;}.cls-5{fill:#fff;}.cls-6{fill:#9d9d9d;}.cls-7{fill:#f5f5f5;}.cls-8{fill:#ababab;}.cls-9{fill:#909090;}.cls-10{fill:#b8b8b8;}.cls-11{fill:#ededed;}.cls-12{fill:#d7d7d7;}.cls-13{fill:#bcbcbc;}.cls-14{fill:#e6e6e6;}.cls-15{fill:#8d8d8d;}.cls-16{fill:#8f8f8f;}.cls-17{fill:#9e9e9e;}.cls-18{fill:#a8a8a8;}.cls-19{fill:#c2c2c2;}.cls-20{fill:#d0d0d0;}.cls-21{fill:#eee;}.cls-22{fill:#fafafa;}.cls-23{fill:#d8d8d8;}.cls-24{fill:#bebebe;}.cls-25{fill:#9f9f9f;}.cls-26{fill:#0e4845;}.cls-27{fill:#0b3c39;}.cls-28{fill:#0d6255;}.cls-29{fill:#0e7562;}.cls-30{fill:#0f8269;}.cls-31{fill:#0a8f74;}.cls-32{fill:#1aa380;}.cls-33{fill:#10b58e;}.cls-34{fill:#1aa782;}.cls-35{fill:#0f5e53;}.cls-36{fill:#0c7564;}.cls-37{fill:#0d8870;}.cls-38{fill:#0f6556;}.cls-39{fill:#0d584d;}.cls-40{fill:#0e6b5b;}.cls-41{fill:#0f856d;}.cls-42{fill:#109b7d;}.cls-43{fill:#067a68;}.cls-44{fill:#159f7e;}.cls-45{fill:#15b089;}.cls-46{fill:#0e6d5d;}.cls-47{fill:#0b806a;}.cls-48{fill:#23b78e;}.cls-49{fill:#1cae85;}.cls-50{fill:#3cb993;}.cls-51{fill:#3cb992;}.cls-52{fill:#023f5d;}.cls-53{fill:#044a6e;}.cls-54{fill:#044464;}.cls-55{fill:#064b6e;}.cls-56{fill:#0b5077;}.cls-57{fill:#0b547c;}.cls-58{fill:#115f8a;}.cls-59{fill:#146594;}.cls-60{fill:#0e76ad;}.cls-61{fill:#1681c0;}.cls-62{fill:#1483c1;}.cls-63{fill:#107db8;}.cls-64{fill:#0e71a9;}.cls-65{fill:#166999;}.cls-66{fill:#105c88;}.cls-67{fill:#055078;}.cls-68{fill:#034567;}</style></defs><title>Logo_300_300</title><path class="cls-1" d="M56.89,236.53S69.21,245,84.79,245H234.37s6.38-.45,8.16-2.27c0,0-32,38-89.66,38S65.35,245.15,56.89,236.53Z" transform="translate(0 0)"/><path class="cls-1" d="M147.54,245l18.72,35a126.49,126.49,0,0,1-43.11-2.68Z" transform="translate(0 0)"/><path class="cls-1" d="M217.37,245,195.8,273.2s27-8.85,46.73-30.47c0,0-1.75,2.27-11.2,2.27Z" transform="translate(0 0)"/><path class="cls-2" d="M261.82,218.22c7.57-11.5,12.76-28.44,12.76-28.44l-15.28-3.93S265.89,198.93,261.82,218.22Z" transform="translate(0 0)"/><path class="cls-3" d="M280.67,152.11s-.16,22.09-6.08,37.67l-15.28-3.93s-4.95-12.12-14.92-18.1Z" transform="translate(0 0)"/><path class="cls-4" d="M223.35,115.63,280.67,144s.19,3.08,0,8.12l-36.29,15.63s-7-6.24-22.88-9Z" transform="translate(0 0)"/><path class="cls-5" d="M186,141.1l37.35-25.47-1.84,43.14A100.69,100.69,0,0,1,186,141.1Z" transform="translate(0 0)"/><path class="cls-5" d="M194.41,102.36l28.94,13.27L186,141.1S166.64,132.14,194.41,102.36Z" transform="translate(0 0)"/><path class="cls-5" d="M194.41,102.36,228.46,67.7,236,75.9l5.11-20s8.88,9.23,11.15,12.64l-28.91,47.07Z" transform="translate(0 0)"/><path class="cls-5" d="M252.26,68.55S277.82,96,280.67,144l-57.32-28.36Z" transform="translate(0 0)"/><path class="cls-6" d="M168.85,223.93H233.4s8.24.77,9.13-16.63-10.13-24.44-18.25-26.37l-6.12-1.59Z" transform="translate(0 0)"/><polygon class="cls-3" points="158.5 160.73 218.16 179.34 168.85 223.93 149.71 223.93 158.5 160.73"/><path class="cls-7" d="M169.17,153.3s10.74,12.52,38,22.61L158.5,160.73Z" transform="translate(0 0)"/><polygon class="cls-8" points="158.5 160.73 103.91 216.88 112.41 223.94 149.71 223.94 158.5 160.73"/><path class="cls-9" d="M57.93,207.9l46,9,8.5,7.05H81.81S66.56,223.7,57.93,207.9Z" transform="translate(0 0)"/><path class="cls-10" d="M61.24,132l25.43,50.28-1.34,1.37,3.8,3.87,14.78,29.38-46-9s-5.15-9.38-5.15-18.12V161.07S52.27,144.46,61.24,132Z" transform="translate(0 0)"/><polygon class="cls-11" points="61.24 131.98 119.1 149.84 86.67 182.26 61.24 131.98"/><path class="cls-5" d="M119.1,149.84l8.09-8.25s-7-19-27.7-22.43S67.74,123,61.24,132Z" transform="translate(0 0)"/><polygon class="cls-12" points="89.12 187.5 100.37 198.97 142.45 156.06 158.5 160.73 103.91 216.88 89.12 187.5"/><path class="cls-5" d="M142.45,156.07l8.58-8.74s-6.2-35.71-40.48-46.73l31.09-22.81,16.86,83Z" transform="translate(0 0)"/><path class="cls-5" d="M141.64,77.78l32.89,15.78s-18.36,18.95-14.91,41.08c0,0,1.05,11.35,9.55,18.67l-10.67,7.43Z" transform="translate(0 0)"/><path class="cls-13" d="M32.4,194.54a196.77,196.77,0,0,1-.45-23.6l-4.67,5A186.4,186.4,0,0,0,32.4,194.54Z" transform="translate(0 0)"/><path class="cls-14" d="M32,170.94s-.4-23.14,4.23-34.61H25.61a128.49,128.49,0,0,0,1.67,39.58Z" transform="translate(0 0)"/><path class="cls-5" d="M36.19,136.33s5.5-17.69,16.58-25.72l-11-25.17s-12,19.39-16.17,50.9Z" transform="translate(0 0)"/><path class="cls-5" d="M41.78,85.44l11,25.17A52.19,52.19,0,0,1,85.13,97.69l19.95-33.06-42.4-7S52,67.34,41.78,85.44Z" transform="translate(0 0)"/><path class="cls-5" d="M110.55,100.59s-9.89-3.93-25.42-2.9l19.95-33.06,36.56,13.16-31.09,22.81" transform="translate(0 0)"/><path class="cls-5" d="M62.68,57.59S89,28.74,131.25,21.73c0,0-25.75,43-26.17,42.89Z" transform="translate(0 0)"/><path class="cls-5" d="M131.25,21.73s21.19-3.84,43.28,0l-32.89,56L105.08,64.62Z" transform="translate(0 0)"/><path class="cls-5" d="M174.53,21.73s26.11,3.59,48.23,19.56l-16.17,4.36L214,53.17s-37.8,37-39.43,40.38L141.64,77.78Z" transform="translate(0 0)"/><path class="cls-1" d="M119.69,282.48a144.18,144.18,0,0,0,49.95,3.29l7.68,12.14s-32.36,6.92-68.42-4.43Z" transform="translate(0 0)"/><path class="cls-15" d="M169.63,285.77s17.14-2.74,21.66-4.83l-14,17Z" transform="translate(0 0)"/><path class="cls-1" d="M191.29,280.94s28.11-8.71,45.55-24.61V273.2s-23.52,18.7-59.53,24.71Z" transform="translate(0 0)"/><path class="cls-16" d="M236.84,256.34a142.31,142.31,0,0,0,17.93-17.6l9.05,9.74a136.65,136.65,0,0,1-27,24.73Z" transform="translate(0 0)"/><path class="cls-17" d="M254.77,238.74s11.65-12.9,20.87-34.09l17.18-8.46s-6.79,26.48-29,52.29Z" transform="translate(0 0)"/><path class="cls-18" d="M280.67,191.61s-2.52,7.58-5,13l17.18-8.46.53-2.08Z" transform="translate(0 0)"/><path class="cls-19" d="M286.75,149.69l13-4.67s2.1,20.9-6.42,49.1l-12.68-2.51S287.46,170.3,286.75,149.69Z" transform="translate(0 0)"/><path class="cls-20" d="M299.77,145s.19.36-.7-10.95l-12.32,15.62Z" transform="translate(0 0)"/><path class="cls-21" d="M257.22,64.62h16.47s20.92,27.12,25.38,69.44l-12.32,15.62S289.16,104.11,257.22,64.62Z" transform="translate(0 0)"/><path class="cls-5" d="M262.45,50.24a120.93,120.93,0,0,1,11.24,14.38H257.22S248.37,53.37,242.9,49l3.91-14.13S252.79,39.42,262.45,50.24Z" transform="translate(0 0)"/><path class="cls-5" d="M246.81,34.92l-16,4.16s-67.07-54-148.54-5.13L75,23.06S156-36,246.81,34.92Z" transform="translate(0 0)"/><path class="cls-5" d="M75,23.06S58.68,32,39.66,54.46H57.32S71,40.13,82.26,33.95Z" transform="translate(0 0)"/><path class="cls-22" d="M39.66,54.46s-4.86,6.21-7,9.37L39,78.15s9.68-16.27,18.37-23.69Z" transform="translate(0 0)"/><path class="cls-4" d="M32.7,63.82s-22.11,27-26.34,74.44H19.53s2.39-35,19.43-60.11Z" transform="translate(0 0)"/><path class="cls-23" d="M6.36,138.26H19.53a143.13,143.13,0,0,0,2.85,43.38l-10.3,12.22S3.65,164.58,6.36,138.26Z" transform="translate(0 0)"/><path class="cls-24" d="M22.38,181.64s4.43,16.76,8.12,24.25H16.38a99.14,99.14,0,0,1-4.3-12Z" transform="translate(0 0)"/><path class="cls-25" d="M30.49,205.89A130.45,130.45,0,0,0,56.89,245H39.19s-17-21.26-22.82-39.11Z" transform="translate(0 0)"/><path class="cls-1" d="M56.89,245s23.94,27.91,62.8,37.48l-10.79,11S66.46,281,39.19,245Z" transform="translate(0 0)"/><path class="cls-26" d="M51.07,236.52S63.38,245,79,245H228.55s6.38-.45,8.16-2.27c0,0-32,38-89.66,38S59.52,245.14,51.07,236.52Z" transform="translate(0 0)"/><path class="cls-27" d="M141.71,245l18.72,35a126.49,126.49,0,0,1-43.11-2.68Z" transform="translate(0 0)"/><path class="cls-27" d="M211.55,245,190,273.19s27-8.85,46.73-30.47c0,0-1.75,2.27-11.2,2.27Z" transform="translate(0 0)"/><path class="cls-28" d="M256,218.21c7.57-11.5,12.76-28.44,12.76-28.44l-15.28-3.93S260.06,198.92,256,218.21Z" transform="translate(0 0)"/><path class="cls-29" d="M274.84,152.1s-.16,22.09-6.08,37.67l-15.28-3.93s-4.95-12.12-14.92-18.1Z" transform="translate(0 0)"/><path class="cls-30" d="M217.52,115.61,274.84,144s.19,3.08,0,8.12l-36.29,15.63s-7-6.24-22.88-9Z" transform="translate(0 0)"/><path class="cls-31" d="M180.17,141.09l37.35-25.47-1.84,43.14A100.69,100.69,0,0,1,180.17,141.09Z" transform="translate(0 0)"/><path class="cls-32" d="M188.58,102.34l28.94,13.27-37.35,25.47S160.82,132.13,188.58,102.34Z" transform="translate(0 0)"/><path class="cls-33" d="M188.58,102.34l34.05-34.66,7.54,8.2,5.11-20s8.88,9.23,11.15,12.64l-28.91,47.07Z" transform="translate(0 0)"/><path class="cls-34" d="M246.43,68.54S272,96,274.84,144l-57.32-28.36Z" transform="translate(0 0)"/><path class="cls-35" d="M163,223.92h64.55s8.24.77,9.13-16.63-10.13-24.44-18.25-26.37l-6.12-1.59Z" transform="translate(0 0)"/><polygon class="cls-36" points="152.68 160.72 212.34 179.33 163.03 223.92 143.89 223.92 152.68 160.72"/><path class="cls-37" d="M163.35,153.29s10.74,12.52,38,22.61l-48.67-15.18Z" transform="translate(0 0)"/><polygon class="cls-38" points="152.68 160.72 98.08 216.87 106.59 223.93 143.89 223.93 152.68 160.72"/><path class="cls-39" d="M52.1,207.88l46,9,8.5,7.05H76S60.73,223.69,52.1,207.88Z" transform="translate(0 0)"/><path class="cls-40" d="M55.42,132l25.43,50.28-1.34,1.37,3.8,3.87,14.78,29.38-46-9s-5.15-9.38-5.15-18.12V161.06S46.44,144.45,55.42,132Z" transform="translate(0 0)"/><polygon class="cls-41" points="55.42 131.97 113.28 149.83 80.85 182.25 55.42 131.97"/><path class="cls-42" d="M113.28,149.83l8.09-8.25s-7-19-27.7-22.43S61.92,123,55.42,132Z" transform="translate(0 0)"/><polygon class="cls-43" points="83.3 187.49 94.55 198.96 136.63 156.05 152.68 160.72 98.08 216.87 83.3 187.49"/><path class="cls-44" d="M136.63,156.05l8.58-8.74s-6.2-35.71-40.48-46.73l31.09-22.81,16.86,83Z" transform="translate(0 0)"/><path class="cls-45" d="M135.82,77.77l32.89,15.78s-18.36,18.95-14.91,41.08c0,0,1.05,11.35,9.55,18.67l-10.67,7.43Z" transform="translate(0 0)"/><path class="cls-46" d="M26.58,194.53a196.77,196.77,0,0,1-.45-23.6l-4.67,5A186.4,186.4,0,0,0,26.58,194.53Z" transform="translate(0 0)"/><path class="cls-47" d="M26.14,170.93s-.4-23.14,4.23-34.61H19.79a128.49,128.49,0,0,0,1.67,39.58Z" transform="translate(0 0)"/><path class="cls-44" d="M30.36,136.32s5.5-17.69,16.58-25.72L36,85.43s-12,19.39-16.17,50.9Z" transform="translate(0 0)"/><path class="cls-48" d="M36,85.43l11,25.17A52.19,52.19,0,0,1,79.31,97.67L99.26,64.61l-42.4-7S46.22,67.32,36,85.43Z" transform="translate(0 0)"/><path class="cls-49" d="M104.73,100.58s-9.89-3.93-25.42-2.9L99.26,64.61l36.56,13.16-31.09,22.81" transform="translate(0 0)"/><path class="cls-50" d="M56.85,57.58s26.34-28.85,68.57-35.85c0,0-25.75,43-26.17,42.89Z" transform="translate(0 0)"/><path class="cls-51" d="M125.43,21.72s21.19-3.84,43.28,0l-32.89,56L99.26,64.61Z" transform="translate(0 0)"/><path class="cls-51" d="M168.71,21.72s26.11,3.59,48.23,19.56l-16.17,4.36,7.37,7.52s-37.8,37-39.43,40.38L135.82,77.77Z" transform="translate(0 0)"/><path class="cls-52" d="M113.86,282.47a144.18,144.18,0,0,0,49.95,3.29l7.68,12.14s-32.36,6.92-68.42-4.43Z" transform="translate(0 0)"/><path class="cls-53" d="M163.81,285.76s17.14-2.74,21.66-4.83l-14,17Z" transform="translate(0 0)"/><path class="cls-54" d="M185.47,280.93s28.11-8.71,45.55-24.61v16.87s-23.52,18.7-59.53,24.71Z" transform="translate(0 0)"/><path class="cls-55" d="M231,256.33a142.31,142.31,0,0,0,17.93-17.6l9.05,9.74a136.65,136.65,0,0,1-27,24.73Z" transform="translate(0 0)"/><path class="cls-56" d="M248.95,238.73s11.65-12.9,20.87-34.09L287,196.18s-6.79,26.48-29,52.29Z" transform="translate(0 0)"/><path class="cls-57" d="M274.84,191.59s-2.52,7.58-5,13L287,196.18l.53-2.08Z" transform="translate(0 0)"/><path class="cls-58" d="M280.93,149.67l13-4.67s2.1,20.9-6.42,49.1l-12.68-2.51S281.64,170.29,280.93,149.67Z" transform="translate(0 0)"/><path class="cls-59" d="M293.95,145s.19.36-.7-10.95l-12.32,15.62Z" transform="translate(0 0)"/><path class="cls-60" d="M251.4,64.61h16.47s20.92,27.12,25.38,69.44l-12.32,15.62S283.34,104.1,251.4,64.61Z" transform="translate(0 0)"/><path class="cls-61" d="M256.63,50.23a120.93,120.93,0,0,1,11.24,14.38H251.4S242.55,53.36,237.08,49L241,34.91S247,39.41,256.63,50.23Z" transform="translate(0 0)"/><path class="cls-61" d="M241,34.91l-16,4.16s-67.07-54-148.54-5.13L69.17,23S150.15-36,241,34.91Z" transform="translate(0 0)"/><path class="cls-62" d="M69.17,23S52.86,32,33.83,54.44H51.5S65.14,40.12,76.44,33.94Z" transform="translate(0 0)"/><path class="cls-63" d="M33.83,54.44s-4.86,6.21-7,9.37l6.26,14.32S42.81,61.86,51.5,54.44Z" transform="translate(0 0)"/><path class="cls-64" d="M26.88,63.81S4.77,90.82.54,138.25H13.71s2.39-35,19.43-60.11Z" transform="translate(0 0)"/><path class="cls-65" d="M.54,138.25H13.71a143.13,143.13,0,0,0,2.85,43.38L6.25,193.85S-2.17,164.56.54,138.25Z" transform="translate(0 0)"/><path class="cls-66" d="M16.55,181.63s4.43,16.76,8.12,24.25H10.55a99.14,99.14,0,0,1-4.3-12Z" transform="translate(0 0)"/><path class="cls-67" d="M24.67,205.88A130.45,130.45,0,0,0,51.07,245H33.37s-17-21.26-22.82-39.11Z" transform="translate(0 0)"/><path class="cls-68" d="M51.07,245S75,272.9,113.86,282.47l-10.79,11S60.64,281,33.37,245Z" transform="translate(0 0)"/></svg>